#!OML:ASF E:/inclinewalkrobotboard/Project1/Captureday1/Session1/subject1.ASF
:FULLY-SPECIFIED
:DEGREES
126
root 0 0 0 9.264783382896802 39.228661612468215 3.961563804796789
lowerback -8.046936869297168 -4.671843602005758 -5.690460584217936
upperback -10.200321994554166 -5.7786778654282625 7.978326814042335
thorax -5.633367683414237 -1.9948605274021995 11.773943855391519
lowerneck -3.5087406486999315 -9.395167563771585 -7.669598582979662
upperneck 32.57953847445937 -11.690148685231774 -0.31639275001112566
head 11.811444843888852 -6.099175573022827 -0.3378366270293398
rclavicle -5.882305090720226E-15 5.808237684330279E-15
rhumerus 155.43821356422288 8.664768816925612 -199.82754554375728
rradius 13.646142770699893
rwrist 86.89312213837849
rhand -16.88464786160016 8.3838360493394
rfingers 7.12502000000001
rthumb 9.296904407626153 -21.409783699149116
lclavicle 3.5781390902553815E-15 9.415690229357971E-16
lhumerus 79.08453825473771 35.50545592721875 14.792292309290808
lradius 34.973075256016294
lwrist -23.505450667497463
lhand -15.959665733892006 17.487446186264194
lfingers 7.125019999999962
lthumb 10.196585543108139 47.63299932752545
rfemur 154.22274224023454 -209.10891771883945 -181.87518024631134
rtibia 48.33731243398609
rfoot -80.65454774558397 -10.538725168209663
rtoes 57.30227837089221
lfemur -88.53719760860886 21.604650059307865 -57.615644681208266
ltibia 73.76441588667139
lfoot 2.3765508789760723 32.721404797113834
ltoes 3.0747599724747463
127
root 0 0 0 6.500177408335144 36.33407390285058 5.967424621368984
lowerback -7.005392045972222 -4.7579520707648495 -6.241754980751638
upperback -9.62323459081681 -5.888027923575482 7.529020788199121
thorax -5.732602566877892 -1.957991552685389 11.585482933021144
lowerneck -3.866694731244495 -9.192976281514028 -7.369384590386907
upperneck 32.27875832393286 -11.443819610185905 -0.259726056821588
head 11.718387719003585 -5.971481429363379 -0.3316386758597045
rclavicle -6.470216303169872E-15 5.899825794489962E-15
rhumerus 154.59648924416817 9.010054783729572 -200.31126374398943
rradius 13.37250441827357
rwrist 87.22498383031292
rhand -16.82801746998018 8.451738519497164
rfingers 7.125020000000009
rthumb 9.35216745087604 -21.321684601108522
lclavicle 2.890703270590189E-15 1.403585194993317E-15
lhumerus 76.51218639839595 36.04938059773747 14.755769727696038
lradius 32.608052207208566
lwrist -24.56499484267343
lhand -16.914335978391268 18.26186132252704
lfingers 7.125019999999959
lthumb 9.275124960341616 48.5792671185161
rfemur 154.32949790247451 -209.294463972675 -181.77201007545625
rtibia 48.31729451853937
rfoot -81.21133622459323 -10.317860272610252
rtoes 56.691620333306446
lfemur -88.1981864841105 21.07603384032219 -58.6325947415717
ltibia 73.2511578931215
lfoot 3.9108455061346383 32.95366199245343
ltoes 2.1016345842222464
128
root 0 0 0 3.7103387321973145 32.93840393474068 7.965949398319138
lowerback -6.010595533542022 -4.86100855706173 -6.777176778098159
upperback -9.067927075113532 -6.024056893266565 7.084335152789764
thorax -5.834127570846192 -1.9364692146920406 11.395307747168985
lowerneck -4.270624941354304 -8.997004107186813 -7.111883466397528
upperneck 31.873106773710987 -11.220145570891344 -0.08698965463460162
head 11.598880097626074 -5.848443456797032 -0.2863645362398717
rclavicle -6.928821004213975E-15 6.044290358291619E-15
rhumerus 153.92654979333935 9.300787561185349 -200.5592299534586
rradius 13.301631750035591
rwrist 87.30666376897983
rhand -16.791007163736506 8.536307073108121
rfingers 7.125020000000008
rthumb 9.38875176849092 -21.218739084724938
lclavicle 2.548706601265021E-15 1.7796599419064214E-15
lhumerus 74.39031825910776 36.17299597538229 14.99815888338544
lradius 31.391886538671873
lwrist -25.100470840373582
lhand -17.479113222489115 18.64553554037983
lfingers 7.125019999999959
lthumb 8.730021630713342 49.05703141290049
rfemur 154.4642725044489 -209.61633912552935 -181.75238871638214
rtibia 48.760979841549414
rfoot -81.55094710998114 -10.34627752712866
rtoes 56.076698578135264
lfemur -87.97612002324753 20.57831556588451 -59.451596582671435
ltibia 72.75375463830329
lfoot 4.781873381952149 33.249298540727445
ltoes 1.4757618189545632
129
root 0 0 0 -0.10127036232705322 27.867320475371887 10.673995911577515
lowerback -4.696429467958386 -5.012903462473606 -7.492844957742799
upperback -8.328214861685357 -6.228422972579584 6.479171892703507
thorax -5.971412127464848 -1.9188541412466449 11.131247589997066
lowerneck -4.8632530447762 -8.730478803160688 -6.794731514178439
upperneck 31.23046984490967 -10.928745483850852 0.24837153670778367
head 11.414282947423795 -5.681661970649877 -0.19086196370133512
rclavicle -7.456675974263024E-15 6.252703199016122E-15
rhumerus 153.12683108486618 9.6764569444879 -200.79194609335931
rradius 13.309084375487535
rwrist 87.28437352703624
rhand -16.751416210617048 8.654122857099486
rfingers 7.125020000000007
rthumb 9.428756951863758 -21.07744017732868
lclavicle 2.2557772162721714E-15 2.219467252173716E-15
lhumerus 71.91815714900007 36.149496429133364 15.642314131588158
lradius 30.413767745428196
lwrist -25.438646428101144
lhand -18.048426779798806 18.894063218261632
lfingers 7.125019999999961
lthumb 8.180945810194626 49.391125586488165
rfemur 154.603605393355 -210.06721045746585 -181.75299676945846
rtibia 49.63126340545264
rfoot -81.77670796013297 -10.701091795756472
rtoes 55.31410984167244
lfemur -87.72374384132107 19.932282128691337 -60.3865639839498
ltibia 72.07904077954095
lfoot 5.5276247587101395 33.65784557015337
ltoes 0.8407774661550302
130
root 0 0 0 -4.14048303750257 22.213588766327415 13.528702113601776
lowerback -3.3052877761111388 -5.174163287499168 -8.251023319958716
upperback -7.542137417580333 -6.448234843104857 5.825067530186234
thorax -6.115669781944824 -1.9034752133117074 10.839337747494934
lowerneck -5.523750766224183 -8.429177303607986 -6.461991474048626
upperneck 30.49949986615059 -10.602062718237077 0.6547000410680215
head 11.208331926073674 -5.492776680976002 -0.07195376768201944
rclavicle -8.155814463960813E-15 6.525188936126796E-15
rhumerus 152.10049006215303 10.14317914864123 -200.9101600053471
rradius 13.413371687999158
rwrist 87.17048658253421
rhand -16.702704215543218 8.816922954240251
rfingers 7.1250200000000055
rthumb 9.478550730302258 -20.883545809323195
lclavicle 1.9672387166302318E-15 2.6788767833021643E-15
lhumerus 68.95249706042911 35.904442659952664 16.799904739490152
lradius 29.68222763211145
lwrist -25.51800568523322
lhand -18.66930699829758 18.982356460635483
lfingers 7.1250199999999655
lthumb 7.5828861622207135 49.55737229482587
rfemur 154.83715505889748 -210.72287853368027 -181.81060170883256
rtibia 51.10915845053569
rfoot -81.69622302515353 -11.434736860255475
rtoes 54.3161382149898
lfemur -87.42644490630731 19.104704638748153 -61.44098188890288
ltibia 71.16303125915675
lfoot 6.063216755735084 34.205367841043966
ltoes 0.21206816376128224
